<svg width="30" height="30" viewBox="0 0 30 30" fill="none" xmlns="http://www.w3.org/2000/svg">
<path d="M16.0869 0C23.7391 0 30 6.2609 30 13.9131V16.0869C30 23.7391 23.7391 30 16.0869 30H13.9131C6.26089 30 0 23.7391 0 16.0869V13.9131C0 6.2609 6.26089 0 13.9131 0H16.0869ZM15.2735 7.54021L15.0799 7.53996C13.468 7.53996 11.8561 7.59324 11.8561 7.59324C9.50181 7.59324 7.59324 9.50181 7.59324 11.8561C7.59324 11.8561 7.54431 13.2402 7.54023 14.7258L7.53996 14.9201C7.53996 16.5834 7.59324 18.3037 7.59324 18.3037C7.59324 20.658 9.50181 22.5666 11.8561 22.5666C11.8561 22.5666 13.3632 22.6199 14.9201 22.6199C16.5835 22.6199 18.357 22.5666 18.357 22.5666C20.7113 22.5666 22.5666 20.7114 22.5666 18.357C22.5666 18.357 22.6199 16.6561 22.6199 15.0267L22.6189 14.6443C22.6117 13.1823 22.5666 11.8028 22.5666 11.8028C22.5666 9.4485 20.7113 7.59324 18.357 7.59324C18.357 7.59324 16.8224 7.54414 15.2735 7.54021ZM15.0799 8.89712C16.4017 8.89712 18.0964 8.94083 18.0964 8.94083C20.027 8.94083 21.219 10.1328 21.219 12.0634C21.219 12.0634 21.2627 13.7292 21.2627 15.0362C21.2627 16.3723 21.219 18.0964 21.219 18.0964C21.219 20.0269 20.027 21.2189 18.0964 21.2189C18.0964 21.2189 16.5977 21.2556 15.2973 21.2618L14.9489 21.2626C13.6722 21.2626 12.1167 21.2189 12.1167 21.2189C10.1862 21.2189 8.94087 19.9736 8.94087 18.0431C8.94087 18.0431 8.89716 16.3128 8.89716 14.9488C8.89716 13.6722 8.94087 12.0634 8.94087 12.0634C8.94087 10.1328 10.1862 8.94083 12.1167 8.94083C12.1167 8.94083 13.7581 8.89712 15.0799 8.89712ZM15.0799 11.2175C12.9467 11.2175 11.2175 12.9467 11.2175 15.0799C11.2175 17.213 12.9467 18.9423 15.0799 18.9423C17.213 18.9423 18.9423 17.213 18.9423 15.0799C18.9423 12.9467 17.213 11.2175 15.0799 11.2175ZM15.0799 12.5665C16.468 12.5665 17.5932 13.6918 17.5932 15.0799C17.5932 16.468 16.468 17.5932 15.0799 17.5932C13.6918 17.5932 12.5666 16.468 12.5666 15.0799C12.5666 13.6918 13.6918 12.5665 15.0799 12.5665ZM19.1271 10.1457C18.6117 10.1457 18.1938 10.5656 18.1938 11.0835C18.1938 11.6015 18.6117 12.0214 19.1271 12.0214C19.6425 12.0214 20.0603 11.6015 20.0603 11.0835C20.0603 10.5655 19.6425 10.1457 19.1271 10.1457Z" fill="#C4C1CC"/>
</svg>
