<svg width="97" height="39" viewBox="0 0 97 39" fill="none" xmlns="http://www.w3.org/2000/svg">
<path fill-rule="evenodd" clip-rule="evenodd" d="M11.1961 30.6487C12.2641 30.5407 13.7718 30.153 15.0289 29.3265C16.3466 28.4601 17.3728 27.1276 17.3728 25.1094C17.3728 23.0285 16.6431 21.7817 15.7795 21.0485C14.8999 20.3018 13.8404 20.0535 13.1498 20.0535H1.48077C1.10336 20.0535 0.915477 20.5097 1.18389 20.7744L11.1961 30.6487Z" fill="#EA0022"/>
<path d="M15.0289 29.3265C13.7718 30.153 12.2641 30.5407 11.1961 30.6487L1.18389 20.7744C0.915477 20.5097 1.10336 20.0535 1.48077 20.0535H13.1498C13.8404 20.0535 14.8999 20.3018 15.7795 21.0485C16.6431 21.7817 17.3728 23.0285 17.3728 25.1094C17.3728 27.1276 16.3466 28.4601 15.0289 29.3265Z" fill="#EA0022"/>
<path d="M15.0288 29.7477C13.7716 30.5743 12.264 30.962 11.196 31.07L1.37305 20.9573L9.39627 27.3343C11.196 28.7508 13.0114 28.6249 14.7223 27.8217C15.6242 27.3982 16.6677 26.6042 17.4635 24.4693C17.5625 25.1734 17.9302 27.7841 15.0288 29.7477Z" fill="#9B0003"/>
<path fill-rule="evenodd" clip-rule="evenodd" d="M9.35041 37.3278L2.46177 30.7747C2.19297 30.519 1.74805 30.7091 1.74805 31.0796V36.9064C1.74805 37.1391 1.93712 37.3278 2.17035 37.3278H9.35041Z" fill="#BDBDBD"/>
<path d="M2.46177 30.7747L9.35041 37.3278H2.17035C1.93712 37.3278 1.74805 37.1391 1.74805 36.9064V31.0796C1.74805 30.7091 2.19297 30.519 2.46177 30.7747Z" fill="#BDBDBD"/>
<path opacity="0.58" d="M2.36581 35.3648L2.36584 34.2162C2.39091 35.2088 2.58112 35.879 3.10999 36.1717C4.06349 36.679 3.70328 36.7424 2.65439 36.679C2.33716 36.6598 2.37879 35.8787 2.36581 35.3648Z" fill="white"/>
<path d="M5.82858 33.9927C8.03762 36.8798 5.51564 37.6016 3.97852 37.6016H9.69439L5.82858 33.9927Z" fill="#797979"/>
<path opacity="0.58" d="M13.2505 20.5481H10.1455C12.047 20.5481 13.7476 20.8981 14.3333 21.8919C14.9236 23.2024 16.3299 23.125 15.7594 22.05C15.189 20.9749 14.235 20.5481 13.2505 20.5481Z" fill="white"/>
<path fill-rule="evenodd" clip-rule="evenodd" d="M0.589744 21.3736C-0.215478 20.5795 0.348155 19.2107 1.48039 19.2107H13.1494C14.0072 19.2107 15.2705 19.5101 16.3264 20.4066C17.3983 21.3166 18.2171 22.8083 18.2171 25.1093C18.2171 27.4729 16.991 29.0453 15.4933 30.03C14.3472 30.7835 13.0329 31.202 11.9508 31.3932L16.6296 36.0075C17.4348 36.8017 16.8711 38.1705 15.7389 38.1705H2.16952C1.46982 38.1705 0.902605 37.6045 0.902605 36.9065V31.0797C0.902605 29.968 2.23738 29.3978 3.04378 30.1649L10.5735 37.3278H15.7389C16.1163 37.3278 16.3042 36.8715 16.0358 36.6068L0.589744 21.3736ZM15.0286 29.3263C13.7714 30.1529 12.2637 30.5406 11.1958 30.6486L1.18351 20.7743C0.9151 20.5096 1.10298 20.0533 1.48039 20.0533H13.1494C13.8401 20.0533 14.8995 20.3016 15.7791 21.0484C16.6427 21.7815 17.3725 23.0284 17.3725 25.1093C17.3725 27.1275 16.3462 28.46 15.0286 29.3263ZM9.34957 37.3278L2.46094 30.7747C2.19214 30.519 1.74721 30.7091 1.74721 31.0797V36.9065C1.74721 37.1392 1.93629 37.3278 2.16952 37.3278H9.34957Z" fill="white"/>
<path fill-rule="evenodd" clip-rule="evenodd" d="M0.441941 21.5234C-0.497484 20.5969 0.160087 19 1.48103 19H13.1501C14.0497 19 15.3638 19.3122 16.4639 20.2461C17.5879 21.2003 18.4289 22.7533 18.4289 25.1093C18.4289 27.5592 17.1528 29.1916 15.6101 30.2058C14.5726 30.888 13.4039 31.3011 12.3832 31.5228L16.7786 35.8577C17.7181 36.7842 17.0605 38.3811 15.7396 38.3811H2.17016C1.35384 38.3811 0.692091 37.7209 0.692091 36.9064V31.0796C0.692091 29.7827 2.24933 29.1174 3.19013 30.0124L10.6587 37.1171H15.7396C15.9283 37.1171 16.0222 36.889 15.888 36.7566L0.441941 21.5234ZM8.82278 37.1171L2.31587 30.9272C2.18147 30.7993 1.959 30.8944 1.959 31.0796V36.9064C1.959 37.0228 2.05354 37.1171 2.17016 37.1171H8.82278ZM11.2735 30.4284C12.3085 30.3096 13.7284 29.9292 14.913 29.1504C16.1857 28.3137 17.1619 27.0411 17.1619 25.1093C17.1619 23.0834 16.4545 21.8978 15.6429 21.2088C14.8074 20.4995 13.7989 20.264 13.1501 20.264H1.48103C1.29233 20.264 1.19838 20.4921 1.33259 20.6245L11.2735 30.4284Z" fill="white"/>
<path d="M35.7488 38.093C35.6268 38.093 35.5124 38.0336 35.4422 37.9338L32.0837 33.1629C32.008 33.0554 31.8815 32.9956 31.7503 33.004C31.4054 33.0261 31.1269 33.0372 30.9149 33.0372H27.174C26.9669 33.0372 26.799 33.2051 26.799 33.4122V37.718C26.799 37.9251 26.6311 38.093 26.424 38.093H24.7949C24.5878 38.093 24.4199 37.9251 24.4199 37.718V21.8526C24.4199 21.6455 24.5878 21.4776 24.7949 21.4776H30.9149C33.072 21.4776 34.7691 21.9919 36.0062 23.0205C37.2434 24.0491 37.8619 25.4653 37.8619 27.2693C37.8619 28.551 37.5447 29.6429 36.9103 30.5449C36.362 31.3243 35.6124 31.9206 34.6614 32.3338C34.4328 32.4331 34.3415 32.7176 34.4856 32.921L37.7285 37.5013C37.9044 37.7496 37.7268 38.093 37.4225 38.093H35.7488ZM30.8435 31.0196C32.3503 31.0196 33.5002 30.6952 34.2933 30.0464C35.0863 29.3976 35.4828 28.4719 35.4828 27.2693C35.4828 26.0666 35.0863 25.1488 34.2933 24.5159C33.5002 23.8671 32.3503 23.5427 30.8435 23.5427H27.174C26.9669 23.5427 26.799 23.7106 26.799 23.9177V30.6446C26.799 30.8517 26.9669 31.0196 27.174 31.0196H30.8435Z" fill="white"/>
<path d="M63.0761 25.6979C63.0761 25.4908 63.244 25.3229 63.4511 25.3229H66.4126C66.6197 25.3229 66.7876 25.4908 66.7876 25.6979V37.718C66.7876 37.9251 66.6197 38.093 66.4126 38.093H64.9319H63.0761V34.9687V25.6979Z" fill="white"/>
<path d="M76.1531 25.133C77.7392 25.133 79.016 25.6077 79.9835 26.5572C80.9669 27.5066 81.4586 28.915 81.4586 30.7822V37.718C81.4586 37.9251 81.2907 38.093 81.0836 38.093H78.1221C77.915 38.093 77.7471 37.9251 77.7471 37.718V31.3519C77.7471 30.3392 77.5251 29.5875 77.081 29.097C76.6369 28.5906 75.9945 28.3374 75.1539 28.3374C74.2181 28.3374 73.4727 28.6301 72.9175 29.2156C72.3624 29.7853 72.0848 30.6398 72.0848 31.7791V37.718C72.0848 37.9251 71.9169 38.093 71.7098 38.093H68.7484C68.5413 38.093 68.3734 37.9251 68.3734 37.718V25.6979C68.3734 25.4908 68.5413 25.3229 68.7484 25.3229H71.5433C71.7504 25.3229 71.9183 25.4908 71.9183 25.6979V25.8521C71.9183 26.1943 72.3617 26.3777 72.6403 26.1789C72.9732 25.9412 73.3432 25.7429 73.7502 25.584C74.4798 25.2833 75.2808 25.133 76.1531 25.133Z" fill="white"/>
<path d="M88.7198 33.4065C88.5806 33.2341 88.323 33.2194 88.165 33.3749L86.7875 34.7309C86.7159 34.8014 86.6755 34.8977 86.6755 34.9982V37.718C86.6755 37.9251 86.5076 38.093 86.3005 38.093H83.3391C83.132 38.093 82.9641 37.9251 82.9641 37.718V20.8557C82.9641 20.6486 83.132 20.4807 83.3391 20.4807H86.3005C86.5076 20.4807 86.6755 20.6486 86.6755 20.8557V29.5795C86.6755 29.9085 87.069 30.078 87.3081 29.852L91.9915 25.4254C92.0611 25.3596 92.1533 25.3229 92.2491 25.3229H95.6295C95.9622 25.3229 96.1301 25.724 95.8967 25.961L91.4279 30.4991C91.2953 30.6337 91.2837 30.8461 91.4007 30.9944L96.5218 37.4857C96.7159 37.7316 96.5407 38.093 96.2274 38.093H92.6835C92.5702 38.093 92.463 38.0417 92.3918 37.9536L88.7198 33.4065Z" fill="white"/>
<path d="M54.3707 36.9299C55.2113 37.7053 56.3929 38.093 57.9156 38.093H63.0761V34.9687H58.4947C57.9871 34.9687 57.5906 34.8263 57.3051 34.5415C57.0355 34.2408 56.9007 33.8215 56.9007 33.2834V28.4602C56.9007 28.2531 57.0686 28.0852 57.2757 28.0852H59.7137C59.9208 28.0852 60.0887 27.9173 60.0887 27.7102V25.6119C60.0887 25.4047 59.9208 25.2369 59.7137 25.2369H57.2757C57.0686 25.2369 56.9007 25.069 56.9007 24.8619V22.5024C56.9007 22.2953 56.7328 22.1274 56.5257 22.1274H53.5642C53.3571 22.1274 53.1892 22.2953 53.1892 22.5024V24.8619C53.1892 25.069 53.0213 25.2369 52.8142 25.2369H51.5896C51.3825 25.2369 51.2146 25.4047 51.2146 25.6119V27.7102C51.2146 27.9173 51.3825 28.0852 51.5896 28.0852H52.8104C53.019 28.0852 53.1875 28.2554 53.1853 28.4641L53.1335 33.5119C53.1335 35.0152 53.5459 36.1545 54.3707 36.9299Z" fill="white"/>
<path fill-rule="evenodd" clip-rule="evenodd" d="M50.7315 31.8741C50.7315 31.974 50.7263 32.0921 50.7158 32.2284C50.7012 32.4189 50.5394 32.5624 50.3484 32.5624H40.8801C40.654 32.5624 40.4779 32.7617 40.5264 32.9825C40.7276 33.8984 41.1871 34.6524 41.905 35.2446C42.7456 35.9092 43.7845 36.2416 45.0216 36.2416H50.3565C50.5636 36.2416 50.7315 36.4094 50.7315 36.6166V37.8604C50.7315 38.0675 50.5636 38.2354 50.3565 38.2354H44.9502C43.6179 38.2354 42.4363 37.9664 41.4053 37.4284C40.3744 36.8745 39.5734 36.1071 39.0024 35.126C38.4473 34.1449 38.1697 33.0372 38.1697 31.8029C38.1697 30.5844 38.4394 29.4846 38.9786 28.5036C39.5338 27.5225 40.2872 26.7629 41.2388 26.2249C42.2063 25.671 43.2928 25.3941 44.4982 25.3941C45.7036 25.3941 46.7742 25.671 47.71 26.2249C48.6617 26.7629 49.3992 27.5225 49.9226 28.5036C50.4619 29.4846 50.7315 30.6082 50.7315 31.8741ZM41.7384 28.3137C42.4839 27.649 43.4038 27.3167 44.4982 27.3167C45.5926 27.3167 46.5046 27.657 47.2342 28.3374C47.8794 28.9126 48.2929 29.636 48.4747 30.5076C48.5206 30.7277 48.3449 30.9246 48.1201 30.9246H40.8755C40.651 30.9246 40.4754 30.7282 40.5199 30.5081C40.6993 29.6218 41.1054 28.8903 41.7384 28.3137Z" fill="white"/>
<rect x="62.5215" y="19.1455" width="4.46085" height="4.45054" rx="2.22527" fill="#EA0022"/>
<path d="M1.17898 10H0.255682L2.92614 2.72727H3.83523L6.50568 10H5.58239L3.40909 3.87784H3.35227L1.17898 10ZM1.51989 7.15909H5.24148V7.94034H1.51989V7.15909ZM10.451 10V2.72727H12.9084C13.4789 2.72727 13.9453 2.83026 14.3075 3.03622C14.6721 3.23982 14.942 3.51562 15.1172 3.86364C15.2924 4.21165 15.38 4.59991 15.38 5.02841C15.38 5.45691 15.2924 5.84635 15.1172 6.19673C14.9444 6.54711 14.6768 6.82647 14.3146 7.0348C13.9524 7.24077 13.4884 7.34375 12.9226 7.34375H11.1612V6.5625H12.8942C13.2848 6.5625 13.5985 6.49503 13.8352 6.36009C14.072 6.22514 14.2436 6.04285 14.3501 5.81321C14.459 5.5812 14.5135 5.3196 14.5135 5.02841C14.5135 4.73722 14.459 4.4768 14.3501 4.24716C14.2436 4.01752 14.0708 3.83759 13.8317 3.70739C13.5926 3.57481 13.2753 3.50852 12.88 3.50852H11.3317V10H10.451ZM16.685 10V4.54545H17.4947V5.36932H17.5515C17.6509 5.09943 17.8308 4.88045 18.0913 4.71236C18.3517 4.54427 18.6452 4.46023 18.9719 4.46023C19.0335 4.46023 19.1104 4.46141 19.2028 4.46378C19.2951 4.46615 19.3649 4.4697 19.4123 4.47443V5.3267C19.3839 5.3196 19.3188 5.30895 19.217 5.29474C19.1175 5.27817 19.0122 5.26989 18.9009 5.26989C18.6358 5.26989 18.399 5.32552 18.1907 5.43679C17.9847 5.54569 17.8214 5.69721 17.7006 5.89134C17.5823 6.0831 17.5231 6.30208 17.5231 6.5483V10H16.685ZM22.4556 10.1136C21.9632 10.1136 21.5311 9.99645 21.1594 9.76207C20.7901 9.5277 20.5013 9.19981 20.293 8.77841C20.087 8.35701 19.984 7.86458 19.984 7.30114C19.984 6.73295 20.087 6.23698 20.293 5.81321C20.5013 5.38944 20.7901 5.06037 21.1594 4.82599C21.5311 4.59162 21.9632 4.47443 22.4556 4.47443C22.948 4.47443 23.3789 4.59162 23.7482 4.82599C24.1199 5.06037 24.4087 5.38944 24.6147 5.81321C24.823 6.23698 24.9272 6.73295 24.9272 7.30114C24.9272 7.86458 24.823 8.35701 24.6147 8.77841C24.4087 9.19981 24.1199 9.5277 23.7482 9.76207C23.3789 9.99645 22.948 10.1136 22.4556 10.1136ZM22.4556 9.3608C22.8297 9.3608 23.1374 9.26491 23.3789 9.07315C23.6204 8.88139 23.7991 8.62926 23.9151 8.31676C24.0311 8.00426 24.0891 7.66572 24.0891 7.30114C24.0891 6.93655 24.0311 6.59683 23.9151 6.28196C23.7991 5.96709 23.6204 5.71259 23.3789 5.51847C23.1374 5.32434 22.8297 5.22727 22.4556 5.22727C22.0816 5.22727 21.7738 5.32434 21.5323 5.51847C21.2908 5.71259 21.1121 5.96709 20.9961 6.28196C20.8801 6.59683 20.8221 6.93655 20.8221 7.30114C20.8221 7.66572 20.8801 8.00426 20.9961 8.31676C21.1121 8.62926 21.2908 8.88139 21.5323 9.07315C21.7738 9.26491 22.0816 9.3608 22.4556 9.3608ZM28.2662 10.1136C27.8116 10.1136 27.4103 9.99882 27.0623 9.76918C26.7143 9.53717 26.4421 9.21046 26.2456 8.78906C26.0491 8.36529 25.9508 7.86458 25.9508 7.28693C25.9508 6.71402 26.0491 6.21686 26.2456 5.79545C26.4421 5.37405 26.7155 5.04853 27.0659 4.81889C27.4163 4.58925 27.8211 4.47443 28.2804 4.47443C28.6355 4.47443 28.916 4.53362 29.122 4.65199C29.3303 4.76799 29.4889 4.90057 29.5978 5.04972C29.7091 5.1965 29.7955 5.31723 29.8571 5.41193H29.9281V2.72727H30.7662V10H29.9565V9.16193H29.8571C29.7955 9.26136 29.7079 9.38684 29.5943 9.53835C29.4806 9.6875 29.3185 9.82126 29.1078 9.93963C28.8971 10.0556 28.6165 10.1136 28.2662 10.1136ZM28.3798 9.3608C28.716 9.3608 29.0001 9.2732 29.2321 9.09801C29.4641 8.92045 29.6404 8.67543 29.7612 8.36293C29.8819 8.04806 29.9423 7.68466 29.9423 7.27273C29.9423 6.86553 29.8831 6.50923 29.7647 6.20384C29.6464 5.89607 29.4712 5.65696 29.2392 5.48651C29.0072 5.31368 28.7207 5.22727 28.3798 5.22727C28.0247 5.22727 27.7288 5.31842 27.492 5.50071C27.2576 5.68063 27.0813 5.92566 26.9629 6.2358C26.8469 6.54356 26.7889 6.8892 26.7889 7.27273C26.7889 7.66098 26.8481 8.01373 26.9664 8.33097C27.0872 8.64583 27.2647 8.89678 27.4991 9.08381C27.7359 9.26847 28.0294 9.3608 28.3798 9.3608ZM35.8549 7.76989V4.54545H36.693V10H35.8549V9.0767H35.7981C35.6703 9.35369 35.4714 9.58925 35.2015 9.78338C34.9316 9.97514 34.5907 10.071 34.1788 10.071C33.8379 10.071 33.5349 9.99645 33.2697 9.8473C33.0046 9.69579 32.7962 9.46851 32.6447 9.16548C32.4932 8.86009 32.4174 8.47538 32.4174 8.01136V4.54545H33.2555V7.95455C33.2555 8.35227 33.3668 8.66951 33.5893 8.90625C33.8142 9.14299 34.1007 9.26136 34.4487 9.26136C34.657 9.26136 34.8689 9.2081 35.0843 9.10156C35.3021 8.99503 35.4844 8.83168 35.6312 8.61151C35.7804 8.39134 35.8549 8.1108 35.8549 7.76989ZM40.4439 10.1136C39.9325 10.1136 39.4922 9.9929 39.1229 9.75142C38.7536 9.50994 38.4695 9.17732 38.2706 8.75355C38.0717 8.32978 37.9723 7.84564 37.9723 7.30114C37.9723 6.74716 38.0741 6.25829 38.2777 5.83452C38.4837 5.40838 38.7701 5.07576 39.1371 4.83665C39.5064 4.59517 39.9373 4.47443 40.4297 4.47443C40.8132 4.47443 41.1589 4.54545 41.4666 4.6875C41.7744 4.82955 42.0265 5.02841 42.223 5.28409C42.4195 5.53977 42.5414 5.83807 42.5888 6.17898H41.7507C41.6868 5.9304 41.5447 5.71023 41.3246 5.51847C41.1068 5.32434 40.8132 5.22727 40.4439 5.22727C40.1172 5.22727 39.8307 5.3125 39.5845 5.48295C39.3407 5.65104 39.1501 5.88897 39.0128 6.19673C38.8778 6.50213 38.8104 6.8608 38.8104 7.27273C38.8104 7.69413 38.8767 8.06108 39.0092 8.37358C39.1442 8.68608 39.3336 8.92874 39.5774 9.10156C39.8236 9.27438 40.1125 9.3608 40.4439 9.3608C40.6617 9.3608 40.8594 9.32292 41.0369 9.24716C41.2145 9.1714 41.3648 9.0625 41.4879 8.92045C41.611 8.77841 41.6986 8.60795 41.7507 8.40909H42.5888C42.5414 8.73106 42.4242 9.02107 42.2372 9.27912C42.0526 9.5348 41.8075 9.7384 41.5021 9.88991C41.1991 10.0391 40.8464 10.1136 40.4439 10.1136ZM46.1861 4.54545V5.25568H43.3594V4.54545H46.1861ZM44.1832 3.23864H45.0213V8.4375C45.0213 8.67424 45.0556 8.8518 45.1243 8.97017C45.1953 9.08617 45.2853 9.1643 45.3942 9.20455C45.5054 9.24242 45.6226 9.26136 45.7457 9.26136C45.8381 9.26136 45.9138 9.25663 45.973 9.24716C46.0322 9.23532 46.0795 9.22585 46.1151 9.21875L46.2855 9.97159C46.2287 9.9929 46.1494 10.0142 46.0476 10.0355C45.9458 10.0592 45.8168 10.071 45.6605 10.071C45.4238 10.071 45.1918 10.0201 44.9645 9.91832C44.7396 9.81652 44.5526 9.66146 44.4034 9.45312C44.2566 9.24479 44.1832 8.98201 44.1832 8.66477V3.23864ZM52.4751 10.1136C51.9827 10.1136 51.5507 9.99645 51.179 9.76207C50.8097 9.5277 50.5208 9.19981 50.3125 8.77841C50.1065 8.35701 50.0036 7.86458 50.0036 7.30114C50.0036 6.73295 50.1065 6.23698 50.3125 5.81321C50.5208 5.38944 50.8097 5.06037 51.179 4.82599C51.5507 4.59162 51.9827 4.47443 52.4751 4.47443C52.9676 4.47443 53.3984 4.59162 53.7678 4.82599C54.1394 5.06037 54.4283 5.38944 54.6342 5.81321C54.8426 6.23698 54.9467 6.73295 54.9467 7.30114C54.9467 7.86458 54.8426 8.35701 54.6342 8.77841C54.4283 9.19981 54.1394 9.5277 53.7678 9.76207C53.3984 9.99645 52.9676 10.1136 52.4751 10.1136ZM52.4751 9.3608C52.8492 9.3608 53.157 9.26491 53.3984 9.07315C53.6399 8.88139 53.8187 8.62926 53.9347 8.31676C54.0507 8.00426 54.1087 7.66572 54.1087 7.30114C54.1087 6.93655 54.0507 6.59683 53.9347 6.28196C53.8187 5.96709 53.6399 5.71259 53.3984 5.51847C53.157 5.32434 52.8492 5.22727 52.4751 5.22727C52.1011 5.22727 51.7933 5.32434 51.5518 5.51847C51.3104 5.71259 51.1316 5.96709 51.0156 6.28196C50.8996 6.59683 50.8416 6.93655 50.8416 7.30114C50.8416 7.66572 50.8996 8.00426 51.0156 8.31676C51.1316 8.62926 51.3104 8.88139 51.5518 9.07315C51.7933 9.26491 52.1011 9.3608 52.4751 9.3608ZM58.655 4.54545V5.25568H55.7147V4.54545H58.655ZM56.5953 10V3.79261C56.5953 3.48011 56.6687 3.2197 56.8155 3.01136C56.9623 2.80303 57.1529 2.64678 57.3873 2.54261C57.6216 2.43845 57.869 2.38636 58.1294 2.38636C58.3354 2.38636 58.5035 2.40294 58.6337 2.43608C58.7639 2.46922 58.861 2.5 58.9249 2.52841L58.6834 3.25284C58.6408 3.23864 58.5816 3.22088 58.5059 3.19957C58.4325 3.17827 58.3354 3.16761 58.2147 3.16761C57.9377 3.16761 57.7376 3.23745 57.6145 3.37713C57.4938 3.51681 57.4334 3.72159 57.4334 3.99148V10H56.5953Z" fill="#C4C1CC"/>
</svg>
