<svg width="135" height="512" viewBox="0 0 135 512" fill="none" xmlns="http://www.w3.org/2000/svg">
<path fill-rule="evenodd" clip-rule="evenodd" d="M221.248 429.41C171.23 389.67 147.298 334.781 114.038 283.644C71.8862 218.836 -8.22731 152.871 1.00928 90.7933C10.1811 29.1507 90.7064 13.7853 155.925 2.12744C209.295 -7.41247 271.795 28.3253 330.082 31.9713C400.494 36.3758 461.027 -11.4815 530.353 25.5489C599.987 62.7437 635.512 141.975 661.417 208.953C686.052 272.648 690.485 336.589 671.329 390.044C653.222 440.574 610.45 474.834 558.598 495.881C510.316 515.479 451.728 515.725 391.116 503.782C332.249 492.183 272.06 469.78 221.248 429.41Z" fill="url(#paint0_linear_676_9103)"/>
<defs>
<linearGradient id="paint0_linear_676_9103" x1="264.322" y1="985.283" x2="-355.097" y2="397.665" gradientUnits="userSpaceOnUse">
<stop stop-color="#EA0022"/>
<stop offset="1" stop-color="#754DE8"/>
</linearGradient>
</defs>
</svg>
