<svg width="323" height="165" viewBox="0 0 323 165" fill="none" xmlns="http://www.w3.org/2000/svg">
<rect y="0.777344" width="322.732" height="163.541" fill="#3367EE"/>
<g clip-path="url(#clip0_0_323)">
<path d="M82.6153 84.9677C83.1022 86.0751 83.44 87.1923 84.0461 88.1415C85.2949 90.119 87.2723 91.0714 89.4815 91.5757C93.0389 92.3897 96.5929 92.4194 100.081 91.289C100.864 91.0296 101.598 90.6395 102.25 90.1354C104.569 88.3327 104.469 85.2841 102.055 83.5967C100.425 82.4596 98.5338 81.9488 96.6459 81.4314C92.8732 80.413 89.0774 79.477 85.3445 78.3399C82.8943 77.5719 80.6158 76.341 78.6339 74.7146C72.6421 69.9028 72.6719 59.475 80.7968 55.1477C83.7249 53.5888 86.8682 52.8572 90.1374 52.6298C95.1653 52.2804 100.074 52.8209 104.599 55.1906C109.236 57.6228 111.766 61.4525 111.849 66.7587C111.849 67.4705 111.73 67.777 110.915 67.7474C108.298 67.6914 105.682 67.7276 102.999 67.7276C102.949 67.2102 102.929 66.7389 102.853 66.3038C102.439 63.7859 100.892 62.1578 98.5703 61.3075C94.9257 59.9318 90.9134 59.8619 87.2226 61.1097C84.6523 61.9567 83.4168 63.8617 83.7182 66.2017C83.78 66.7939 83.9884 67.3616 84.3248 67.854C84.6612 68.3463 85.1152 68.7479 85.646 69.0228C87.2171 69.8622 88.8625 70.5562 90.5613 71.0959C94.5095 72.2889 98.5438 73.2117 102.485 74.474C104.464 75.1432 106.355 76.0473 108.116 77.1667C115.019 81.4248 114.9 92.3271 107.729 96.6116C105.037 98.1832 102.041 99.1673 98.938 99.4987C93.6682 100.158 88.468 99.8876 83.4433 98.0617C79.6078 96.6676 76.4876 94.3672 74.8315 90.5145C74.4825 89.6233 74.2077 88.7051 74.0101 87.7691C74.0059 87.6433 74.0342 87.5185 74.0921 87.4065C74.1501 87.2946 74.2359 87.1993 74.3413 87.1297C77.0441 86.3783 79.7601 85.6697 82.4762 84.9545C82.559 84.9413 82.6451 84.9677 82.6153 84.9677Z" fill="white"/>
<path d="M147.578 88.8094L152.019 94.7121C150.778 95.9535 149.318 96.9587 147.713 97.6783C140.811 100.684 133.915 100.836 127.356 96.8972C122.107 93.7431 119.738 88.7632 119.639 82.7254C119.487 74.486 124.591 67.8253 132.517 65.7655C141.278 63.4881 150.158 67.9835 153.102 76.1866C154.019 78.7547 154.247 81.516 153.765 84.1986C153.649 84.894 153.364 85.0819 152.685 85.0819C145.076 85.0621 137.468 85.0621 129.861 85.0819H128.724C128.957 86.4498 129.526 87.7394 130.381 88.8357C132.037 90.9912 134.286 92.0755 136.949 92.3556C138.747 92.5748 140.571 92.4143 142.303 91.8845C144.035 91.3546 145.634 90.4674 146.998 89.2807C147.16 89.1258 147.333 89.0005 147.578 88.8094ZM145.021 78.9781C144.358 75.0232 140.794 72.3174 136.71 72.4921C131.924 72.6931 129.284 76.3778 128.926 78.9781H145.021Z" fill="white"/>
<path d="M211.918 65.9507H214.621C216.578 65.9507 218.536 65.977 220.493 65.9507C220.759 65.9082 221.032 65.9685 221.255 66.1192C221.477 66.2699 221.634 66.4996 221.692 66.7614C224.448 74.0604 227.222 81.3561 230.013 88.6485C230.105 88.899 230.208 89.1462 230.367 89.5483C230.489 89.3346 230.6 89.1146 230.698 88.8891C233.498 81.5462 236.288 74.1988 239.068 66.8471C239.323 66.1715 239.655 65.9342 240.393 65.9474C242.874 65.9935 245.362 65.9474 247.836 65.9671C248.131 65.9671 248.425 65.9902 248.849 66.01C248.697 66.4417 248.601 66.7746 248.468 67.091C244.524 76.5762 240.612 86.0712 236.614 95.5334C234.332 100.935 231.046 105.608 226.068 108.934C223.341 110.763 220.267 112.017 217.035 112.619C216.813 112.661 216.373 112.543 216.323 112.394C215.356 109.896 214.432 107.385 213.478 104.814C214.922 104.307 216.303 103.858 217.655 103.338C220.303 102.385 222.741 100.93 224.832 99.0532C225.029 98.9167 225.168 98.7116 225.22 98.4784C225.272 98.2452 225.234 98.001 225.114 97.7942C220.828 87.5313 216.557 77.2617 212.302 66.9855C212.189 66.6988 212.093 66.4187 211.918 65.9507Z" fill="white"/>
<path d="M190.703 91.2847C191.17 91.3078 191.462 91.3308 191.75 91.3308H206.556C207.658 91.3308 207.662 91.3308 207.662 92.4646C207.662 94.3827 207.635 96.3008 207.662 98.2157C207.678 98.9177 207.42 99.0956 206.754 99.0956C197.683 99.0758 188.613 99.0758 179.544 99.0956C178.905 99.0956 178.66 98.9243 178.676 98.2585C178.72 96.8084 178.65 95.3516 178.716 93.9048C178.744 93.422 178.925 92.9604 179.233 92.5865C184.415 86.6542 189.616 80.7306 194.834 74.8158C195.095 74.5159 195.354 74.2061 195.784 73.6985H194.598C189.61 73.6985 184.619 73.6985 179.63 73.6985C178.918 73.6985 178.66 73.5206 178.676 72.7823C178.72 70.7818 178.71 68.7813 178.676 66.7808C178.676 66.1579 178.845 65.9107 179.518 65.914C188.613 65.9316 197.71 65.9316 206.807 65.914C207.47 65.914 207.672 66.1282 207.655 66.7676C207.619 68.221 207.688 69.6744 207.619 71.1246C207.588 71.6272 207.401 72.1077 207.082 72.4989C201.849 78.5037 196.599 84.4932 191.333 90.4673C191.16 90.7112 190.985 90.9419 190.703 91.2847Z" fill="white"/>
<path d="M161.771 76.1184V54.3367C161.771 53.259 161.771 53.2557 162.847 53.2557H169.379C170.512 53.2557 170.515 53.2557 170.515 54.3598V93.8133C170.515 95.2931 170.488 96.7795 170.515 98.2494C170.515 98.9085 170.333 99.1096 169.674 99.0997C167.385 99.0667 165.096 99.0535 162.811 99.0997C161.986 99.1195 161.731 98.9085 161.737 98.0549C161.784 90.7482 161.771 83.4317 161.771 76.1184Z" fill="white"/>
<path d="M153.991 53.2284H119.623V60.9932H153.991V53.2284Z" fill="#00FF47"/>
</g>
<defs>
<clipPath id="clip0_0_323">
<rect width="174.849" height="69.5918" fill="white" transform="translate(73.9999 47.7772)"/>
</clipPath>
</defs>
</svg>
