<svg width="786" height="342" viewBox="0 0 786 342" fill="none" xmlns="http://www.w3.org/2000/svg">
<g clip-path="url(#clip0_0_292)">
<path d="M138.884 178.513C140.45 182.091 141.536 185.701 143.485 188.768C147.499 195.158 153.857 198.235 160.96 199.865C172.397 202.495 183.824 202.591 195.038 198.938C197.557 198.1 199.916 196.839 202.013 195.211C209.468 189.386 209.148 179.535 201.385 174.083C196.146 170.409 190.065 168.758 183.995 167.086C171.865 163.795 159.661 160.771 147.659 157.097C139.781 154.615 132.456 150.638 126.084 145.383C106.819 129.835 106.915 96.14 133.038 82.1574C142.452 77.1203 152.558 74.7562 163.069 74.0214C179.234 72.8925 195.017 74.639 209.564 82.2959C224.473 90.1551 232.609 102.53 232.875 119.675C232.875 121.975 232.492 122.966 229.872 122.87C221.459 122.689 213.046 122.806 204.42 122.806C204.26 121.134 204.196 119.611 203.951 118.205C202.62 110.069 197.647 104.809 190.182 102.061C178.464 97.6159 165.564 97.39 153.697 101.422C145.433 104.159 141.461 110.314 142.43 117.875C142.629 119.789 143.299 121.623 144.381 123.214C145.462 124.805 146.922 126.103 148.628 126.991C153.68 129.703 158.97 131.946 164.432 133.69C177.126 137.545 190.097 140.526 202.769 144.605C209.132 146.767 215.21 149.689 220.873 153.306C243.066 167.065 242.683 202.293 219.627 216.137C210.974 221.215 201.34 224.395 191.364 225.466C174.421 227.595 157.701 226.722 141.546 220.822C129.214 216.318 119.183 208.885 113.858 196.435C112.736 193.556 111.853 190.589 111.217 187.565C111.204 187.158 111.295 186.755 111.481 186.393C111.667 186.031 111.943 185.724 112.282 185.499C120.972 183.071 129.704 180.781 138.437 178.47C138.703 178.427 138.98 178.513 138.884 178.513Z" fill="#3B1B67"/>
<path d="M347.75 190.924L362.031 209.997C358.038 214.009 353.346 217.257 348.187 219.582C325.993 229.294 303.821 229.784 282.736 217.058C265.857 206.867 258.242 190.775 257.923 171.266C257.433 144.643 273.844 123.12 299.327 116.464C327.495 109.106 356.046 123.631 365.513 150.138C368.459 158.436 369.193 167.358 367.643 176.026C367.27 178.273 366.354 178.88 364.171 178.88C339.706 178.816 315.245 178.816 290.787 178.88H287.134C287.882 183.3 289.711 187.467 292.459 191.01C297.783 197.974 305.014 201.478 313.576 202.383C319.358 203.092 325.223 202.573 330.791 200.861C336.358 199.149 341.502 196.282 345.886 192.447C346.408 191.947 346.962 191.542 347.75 190.924ZM339.529 159.158C337.399 146.378 325.94 137.635 312.809 138.2C297.421 138.849 288.934 150.755 287.783 159.158H339.529Z" fill="#3B1B67"/>
<path d="M554.613 117.065H563.303C569.597 117.065 575.891 117.151 582.184 117.065C583.04 116.928 583.915 117.123 584.632 117.61C585.349 118.097 585.852 118.839 586.039 119.685C594.9 143.27 603.817 166.844 612.791 190.407C613.089 191.217 613.419 192.015 613.93 193.315C614.323 192.624 614.679 191.913 614.995 191.185C623.997 167.458 632.968 143.717 641.906 119.962C642.726 117.779 643.791 117.012 646.166 117.055C654.142 117.204 662.14 117.055 670.095 117.119C671.042 117.119 671.99 117.193 673.353 117.257C672.863 118.652 672.555 119.728 672.129 120.75C659.445 151.399 646.868 182.08 634.015 212.654C626.677 230.108 616.113 245.209 600.107 255.954C591.342 261.865 581.458 265.917 571.067 267.86C570.353 267.998 568.937 267.615 568.777 267.136C565.667 259.064 562.696 250.949 559.629 242.642C564.272 241.002 568.713 239.554 573.058 237.871C581.574 234.794 589.411 230.092 596.135 224.027C596.769 223.586 597.213 222.923 597.381 222.17C597.549 221.416 597.427 220.627 597.04 219.959C583.26 186.797 569.529 153.614 555.849 120.409C555.487 119.483 555.178 118.578 554.613 117.065Z" fill="#3B1B67"/>
<path d="M486.405 198.927C487.906 199.001 488.843 199.076 489.77 199.076H537.372C540.918 199.076 540.929 199.076 540.929 202.739C540.929 208.937 540.844 215.135 540.929 221.322C540.982 223.591 540.152 224.166 538.011 224.166C508.846 224.102 479.685 224.102 450.527 224.166C448.472 224.166 447.684 223.612 447.737 221.461C447.875 216.775 447.652 212.068 447.865 207.393C447.954 205.833 448.535 204.342 449.526 203.133C466.189 183.965 482.908 164.824 499.684 145.712C500.526 144.743 501.356 143.742 502.741 142.102H498.928C482.89 142.102 466.842 142.102 450.804 142.102C448.514 142.102 447.684 141.527 447.737 139.142C447.875 132.677 447.843 126.213 447.737 119.749C447.737 117.736 448.28 116.938 450.442 116.948C479.685 117.005 508.931 117.005 538.182 116.948C540.311 116.948 540.961 117.641 540.908 119.707C540.791 124.403 541.014 129.099 540.791 133.785C540.693 135.409 540.09 136.962 539.066 138.226C522.24 157.629 505.36 176.982 488.428 196.286C487.874 197.074 487.31 197.819 486.405 198.927Z" fill="#3B1B67"/>
<path d="M393.382 149.919V79.5379C393.382 76.0556 393.382 76.0449 396.843 76.0449H417.844C421.486 76.0449 421.497 76.0449 421.497 79.6125V207.096C421.497 211.877 421.411 216.68 421.497 221.43C421.497 223.559 420.911 224.209 418.792 224.177C411.433 224.071 404.074 224.028 396.726 224.177C394.074 224.241 393.254 223.559 393.276 220.801C393.425 197.192 393.382 173.55 393.382 149.919Z" fill="#3B1B67"/>
<path d="M368.367 75.957H257.869V101.047H368.367V75.957Z" fill="#00FF47"/>
</g>
<path d="M90.8378 77.3659L105.119 96.4389C101.126 100.45 96.4343 103.698 91.2744 106.023C69.0812 115.735 46.9093 116.225 25.8236 103.499C8.94441 93.308 1.33015 77.2168 1.01067 57.7073C0.520804 31.0839 16.9314 9.5616 42.4153 2.90576C70.5828 -4.45293 99.1336 10.0728 108.601 36.579C111.547 44.8771 112.281 53.7994 110.731 62.4675C110.358 64.7145 109.442 65.3215 107.259 65.3215C82.794 65.2576 58.3325 65.2576 33.8745 65.3215H30.2218C30.9699 69.7417 32.799 73.9085 35.5464 77.4511C40.8711 84.4158 48.102 87.9194 56.6641 88.8246C62.4455 89.533 68.3113 89.0142 73.8787 87.3022C79.446 85.5901 84.5897 82.7233 88.9741 78.8887C89.4959 78.3882 90.0497 77.9836 90.8378 77.3659ZM82.6165 45.599C80.4866 32.8198 69.0279 24.0766 55.8973 24.641C40.509 25.2906 32.0215 37.1966 30.8714 45.599H82.6165Z" fill="#EFEFEF"/>
<rect opacity="0.44" x="0.5" y="0.5" width="111.185" height="113.434" stroke="#484848" stroke-dasharray="8 8"/>
<path d="M764.314 77.3659L778.595 96.4389C774.603 100.45 769.911 103.698 764.751 106.023C742.558 115.735 720.386 116.225 699.3 103.499C682.421 93.308 674.807 77.2168 674.487 57.7073C673.997 31.0839 690.408 9.5616 715.892 2.90576C744.059 -4.45293 772.61 10.0728 782.077 36.579C785.023 44.8771 785.757 53.7994 784.207 62.4675C783.835 64.7145 782.919 65.3215 780.736 65.3215C756.271 65.2576 731.809 65.2576 707.351 65.3215H703.698C704.446 69.7417 706.276 73.9085 709.023 77.4511C714.348 84.4158 721.579 87.9194 730.141 88.8246C735.922 89.533 741.788 89.0142 747.355 87.3022C752.923 85.5901 758.066 82.7233 762.451 78.8887C762.973 78.3882 763.526 77.9836 764.314 77.3659ZM756.093 45.599C753.963 32.8198 742.504 24.0766 729.374 24.641C713.986 25.2906 705.498 37.1966 704.348 45.599H756.093Z" fill="#EFEFEF"/>
<rect opacity="0.44" x="673.977" y="0.5" width="111.185" height="113.434" stroke="#484848" stroke-dasharray="8 8"/>
<path d="M90.8378 190.926L105.119 209.999C101.126 214.011 96.4343 217.259 91.2744 219.584C69.0812 229.296 46.9093 229.786 25.8236 217.06C8.94441 206.869 1.33015 190.777 1.01067 171.268C0.520804 144.644 16.9314 123.122 42.4153 116.466C70.5828 109.108 99.1336 123.633 108.601 150.139C111.547 158.438 112.281 167.36 110.731 176.028C110.358 178.275 109.442 178.882 107.259 178.882C82.794 178.818 58.3325 178.818 33.8745 178.882H30.2218C30.9699 183.302 32.799 187.469 35.5464 191.012C40.8711 197.976 48.102 201.48 56.6641 202.385C62.4455 203.094 68.3113 202.575 73.8787 200.863C79.446 199.151 84.5897 196.284 88.9741 192.449C89.4959 191.949 90.0497 191.544 90.8378 190.926ZM82.6165 159.16C80.4866 146.38 69.0279 137.637 55.8973 138.202C40.509 138.851 32.0215 150.757 30.8714 159.16H82.6165Z" fill="#EFEFEF"/>
<rect opacity="0.44" x="0.5" y="114.061" width="111.185" height="113.434" stroke="#484848" stroke-dasharray="8 8"/>
<path d="M764.314 190.926L778.595 209.999C774.603 214.011 769.911 217.259 764.751 219.584C742.558 229.296 720.386 229.786 699.3 217.06C682.421 206.869 674.807 190.777 674.487 171.268C673.997 144.644 690.408 123.122 715.892 116.466C744.059 109.108 772.61 123.633 782.077 150.139C785.023 158.438 785.757 167.36 784.207 176.028C783.835 178.275 782.919 178.882 780.736 178.882C756.271 178.818 731.809 178.818 707.351 178.882H703.698C704.446 183.302 706.276 187.469 709.023 191.012C714.348 197.976 721.579 201.48 730.141 202.385C735.922 203.094 741.788 202.575 747.355 200.863C752.923 199.151 758.066 196.284 762.451 192.449C762.973 191.949 763.526 191.544 764.314 190.926ZM756.093 159.16C753.963 146.38 742.504 137.637 729.374 138.202C713.986 138.851 705.498 150.757 704.348 159.16H756.093Z" fill="#EFEFEF"/>
<rect opacity="0.44" x="673.977" y="114.061" width="111.185" height="113.434" stroke="#484848" stroke-dasharray="8 8"/>
<path d="M90.8378 304.483L105.119 323.556C101.126 327.568 96.4343 330.816 91.2744 333.141C69.0812 342.853 46.9093 343.343 25.8236 330.617C8.94441 320.425 1.33015 304.334 1.01067 284.825C0.520804 258.201 16.9314 236.679 42.4153 230.023C70.5828 222.665 99.1336 237.19 108.601 263.696C111.547 271.995 112.281 280.917 110.731 289.585C110.358 291.832 109.442 292.439 107.259 292.439C82.794 292.375 58.3325 292.375 33.8745 292.439H30.2218C30.9699 296.859 32.799 301.026 35.5464 304.569C40.8711 311.533 48.102 315.037 56.6641 315.942C62.4455 316.65 68.3113 316.132 73.8787 314.42C79.446 312.708 84.5897 309.841 88.9741 306.006C89.4959 305.506 90.0497 305.101 90.8378 304.483ZM82.6165 272.716C80.4866 259.937 69.0279 251.194 55.8973 251.758C40.509 252.408 32.0215 264.314 30.8714 272.716H82.6165Z" fill="#EFEFEF"/>
<rect opacity="0.44" x="0.5" y="227.617" width="111.185" height="113.434" stroke="#484848" stroke-dasharray="8 8"/>
<path d="M764.314 304.483L778.595 323.556C774.603 327.567 769.911 330.815 764.751 333.14C742.558 342.853 720.386 343.343 699.3 330.617C682.421 320.425 674.807 304.334 674.487 284.824C673.997 258.201 690.408 236.679 715.892 230.023C744.059 222.664 772.61 237.19 782.077 263.696C785.023 271.994 785.757 280.917 784.207 289.585C783.835 291.832 782.919 292.439 780.736 292.439C756.271 292.375 731.809 292.375 707.351 292.439H703.698C704.446 296.859 706.276 301.026 709.023 304.568C714.348 311.533 721.579 315.037 730.141 315.942C735.922 316.65 741.788 316.131 747.355 314.419C752.923 312.707 758.066 309.84 762.451 306.006C762.973 305.505 763.526 305.101 764.314 304.483ZM756.093 272.716C753.963 259.937 742.504 251.194 729.374 251.758C713.986 252.408 705.498 264.314 704.348 272.716H756.093Z" fill="#EFEFEF"/>
<rect opacity="0.44" x="673.977" y="227.617" width="111.185" height="113.434" stroke="#484848" stroke-dasharray="8 8"/>
<g opacity="0.44">
<mask id="path-19-outside-1_0_292" maskUnits="userSpaceOnUse" x="112.309" y="267.467" width="562" height="75" fill="black">
<rect fill="white" x="112.309" y="267.467" width="562" height="75"/>
<path d="M112.309 267.467H673.352V340.549H112.309V267.467Z"/>
</mask>
<path d="M112.309 341.049H116.316V340.049H112.309V341.049ZM124.331 341.049H132.346V340.049H124.331V341.049ZM140.361 341.049H148.376V340.049H140.361V341.049ZM156.391 341.049H164.405V340.049H156.391V341.049ZM172.42 341.049H180.435V340.049H172.42V341.049ZM188.45 341.049H196.465V340.049H188.45V341.049ZM204.48 341.049H212.495V340.049H204.48V341.049ZM220.51 341.049H228.525V340.049H220.51V341.049ZM236.54 341.049H244.555V340.049H236.54V341.049ZM252.569 341.049H260.584V340.049H252.569V341.049ZM268.599 341.049H276.614V340.049H268.599V341.049ZM284.629 341.049H292.644V340.049H284.629V341.049ZM300.659 341.049H308.674V340.049H300.659V341.049ZM316.689 341.049H324.704V340.049H316.689V341.049ZM332.719 341.049H340.733V340.049H332.719V341.049ZM348.748 341.049H356.763V340.049H348.748V341.049ZM364.778 341.049H372.793V340.049H364.778V341.049ZM380.808 341.049H388.823V340.049H380.808V341.049ZM396.838 341.049H404.853V340.049H396.838V341.049ZM412.868 341.049H420.882V340.049H412.868V341.049ZM428.897 341.049H436.912V340.049H428.897V341.049ZM444.927 341.049H452.942V340.049H444.927V341.049ZM460.957 341.049H468.972V340.049H460.957V341.049ZM476.987 341.049H485.002V340.049H476.987V341.049ZM493.016 341.049H501.031V340.049H493.016V341.049ZM509.046 341.049H517.061V340.049H509.046V341.049ZM525.076 341.049H533.091V340.049H525.076V341.049ZM541.106 341.049H549.121V340.049H541.106V341.049ZM557.136 341.049H565.15V340.049H557.136V341.049ZM573.165 341.049H581.18V340.049H573.165V341.049ZM589.195 341.049H597.21V340.049H589.195V341.049ZM605.225 341.049H613.24V340.049H605.225V341.049ZM621.255 341.049H629.27V340.049H621.255V341.049ZM637.285 341.049H645.299V340.049H637.285V341.049ZM653.314 341.049H661.329V340.049H653.314V341.049ZM669.344 341.049H673.352V340.049H669.344V341.049ZM112.309 341.549H116.316V339.549H112.309V341.549ZM124.331 341.549H132.346V339.549H124.331V341.549ZM140.361 341.549H148.376V339.549H140.361V341.549ZM156.391 341.549H164.405V339.549H156.391V341.549ZM172.42 341.549H180.435V339.549H172.42V341.549ZM188.45 341.549H196.465V339.549H188.45V341.549ZM204.48 341.549H212.495V339.549H204.48V341.549ZM220.51 341.549H228.525V339.549H220.51V341.549ZM236.54 341.549H244.555V339.549H236.54V341.549ZM252.569 341.549H260.584V339.549H252.569V341.549ZM268.599 341.549H276.614V339.549H268.599V341.549ZM284.629 341.549H292.644V339.549H284.629V341.549ZM300.659 341.549H308.674V339.549H300.659V341.549ZM316.689 341.549H324.704V339.549H316.689V341.549ZM332.719 341.549H340.733V339.549H332.719V341.549ZM348.748 341.549H356.763V339.549H348.748V341.549ZM364.778 341.549H372.793V339.549H364.778V341.549ZM380.808 341.549H388.823V339.549H380.808V341.549ZM396.838 341.549H404.853V339.549H396.838V341.549ZM412.868 341.549H420.882V339.549H412.868V341.549ZM428.897 341.549H436.912V339.549H428.897V341.549ZM444.927 341.549H452.942V339.549H444.927V341.549ZM460.957 341.549H468.972V339.549H460.957V341.549ZM476.987 341.549H485.002V339.549H476.987V341.549ZM493.016 341.549H501.031V339.549H493.016V341.549ZM509.046 341.549H517.061V339.549H509.046V341.549ZM525.076 341.549H533.091V339.549H525.076V341.549ZM541.106 341.549H549.121V339.549H541.106V341.549ZM557.136 341.549H565.15V339.549H557.136V341.549ZM573.165 341.549H581.18V339.549H573.165V341.549ZM589.195 341.549H597.21V339.549H589.195V341.549ZM605.225 341.549H613.24V339.549H605.225V341.549ZM621.255 341.549H629.27V339.549H621.255V341.549ZM637.285 341.549H645.299V339.549H637.285V341.549ZM653.314 341.549H661.329V339.549H653.314V341.549ZM669.344 341.549H673.352V339.549H669.344V341.549Z" fill="#484848" mask="url(#path-19-outside-1_0_292)"/>
</g>
<g opacity="0.44">
<mask id="path-21-outside-2_0_292" maskUnits="userSpaceOnUse" x="111.353" y="0" width="562" height="75" fill="black">
<rect fill="white" x="111.353" width="562" height="75"/>
<path d="M673.353 1H112.309V74.0818H673.353V1Z"/>
</mask>
<path d="M112.309 0.5H116.317V1.5H112.309V0.5ZM124.332 0.5H132.347V1.5H124.332V0.5ZM140.362 0.5H148.376V1.5H140.362V0.5ZM156.391 0.5H164.406V1.5H156.391V0.5ZM172.421 0.5H180.436V1.5H172.421V0.5ZM188.451 0.5H196.466V1.5H188.451V0.5ZM204.481 0.5H212.496V1.5H204.481V0.5ZM220.511 0.5H228.525V1.5H220.511V0.5ZM236.54 0.5H244.555V1.5H236.54V0.5ZM252.57 0.5H260.585V1.5H252.57V0.5ZM268.6 0.5H276.615V1.5H268.6V0.5ZM284.63 0.5H292.645V1.5H284.63V0.5ZM300.66 0.5H308.675V1.5H300.66V0.5ZM316.689 0.5H324.704V1.5H316.689V0.5ZM332.719 0.5H340.734V1.5H332.719V0.5ZM348.749 0.5H356.764V1.5H348.749V0.5ZM364.779 0.5H372.794V1.5H364.779V0.5ZM380.809 0.5H388.824V1.5H380.809V0.5ZM396.838 0.5H404.853V1.5H396.838V0.5ZM412.868 0.5H420.883V1.5H412.868V0.5ZM428.898 0.5H436.913V1.5H428.898V0.5ZM444.928 0.5H452.943V1.5H444.928V0.5ZM460.958 0.5H468.972V1.5H460.958V0.5ZM476.987 0.5H485.002V1.5H476.987V0.5ZM493.017 0.5H501.032V1.5H493.017V0.5ZM509.047 0.5H517.062V1.5H509.047V0.5ZM525.077 0.5H533.092V1.5H525.077V0.5ZM541.107 0.5H549.121V1.5H541.107V0.5ZM557.136 0.5H565.151V1.5H557.136V0.5ZM573.166 0.5H581.181V1.5H573.166V0.5ZM589.196 0.5H597.211V1.5H589.196V0.5ZM605.226 0.5H613.241V1.5H605.226V0.5ZM621.255 0.5H629.27V1.5H621.255V0.5ZM637.285 0.5H645.3V1.5H637.285V0.5ZM653.315 0.5H661.33V1.5H653.315V0.5ZM669.345 0.5H673.353V1.5H669.345V0.5ZM112.309 0H116.317V2H112.309V0ZM124.332 0H132.347V2H124.332V0ZM140.362 0H148.376V2H140.362V0ZM156.391 0H164.406V2H156.391V0ZM172.421 0H180.436V2H172.421V0ZM188.451 0H196.466V2H188.451V0ZM204.481 0H212.496V2H204.481V0ZM220.511 0H228.525V2H220.511V0ZM236.54 0H244.555V2H236.54V0ZM252.57 0H260.585V2H252.57V0ZM268.6 0H276.615V2H268.6V0ZM284.63 0H292.645V2H284.63V0ZM300.66 0H308.675V2H300.66V0ZM316.689 0H324.704V2H316.689V0ZM332.719 0H340.734V2H332.719V0ZM348.749 0H356.764V2H348.749V0ZM364.779 0H372.794V2H364.779V0ZM380.809 0H388.824V2H380.809V0ZM396.838 0H404.853V2H396.838V0ZM412.868 0H420.883V2H412.868V0ZM428.898 0H436.913V2H428.898V0ZM444.928 0H452.943V2H444.928V0ZM460.958 0H468.972V2H460.958V0ZM476.987 0H485.002V2H476.987V0ZM493.017 0H501.032V2H493.017V0ZM509.047 0H517.062V2H509.047V0ZM525.077 0H533.092V2H525.077V0ZM541.107 0H549.121V2H541.107V0ZM557.136 0H565.151V2H557.136V0ZM573.166 0H581.181V2H573.166V0ZM589.196 0H597.211V2H589.196V0ZM605.226 0H613.241V2H605.226V0ZM621.255 0H629.27V2H621.255V0ZM637.285 0H645.3V2H637.285V0ZM653.315 0H661.33V2H653.315V0ZM669.345 0H673.353V2H669.345V0Z" fill="#484848" mask="url(#path-21-outside-2_0_292)"/>
</g>
<defs>
<clipPath id="clip0_0_292">
<rect width="562.168" height="224.867" fill="white" transform="translate(111.186 58.3418)"/>
</clipPath>
</defs>
</svg>
