<svg width="323" height="165" viewBox="0 0 323 165" fill="none" xmlns="http://www.w3.org/2000/svg">
<rect y="0.777344" width="322.732" height="163.541" fill="#3B1B67"/>
<g clip-path="url(#clip0_0_341)">
<path d="M82.6153 84.9678C83.1022 86.0752 83.4401 87.1925 84.0462 88.1416C85.2949 90.1191 87.2723 91.0716 89.4816 91.5758C93.0389 92.3899 96.593 92.4195 100.081 91.2891C100.864 91.0297 101.598 90.6396 102.25 90.1356C104.569 88.3328 104.469 85.2842 102.055 83.5968C100.425 82.4598 98.5339 81.9489 96.646 81.4315C92.8733 80.4131 89.0775 79.4771 85.3446 78.3401C82.8944 77.5721 80.6159 76.3412 78.634 74.7147C72.6422 69.9029 72.672 59.4752 80.7969 55.1478C83.7249 53.5889 86.8683 52.8573 90.1374 52.6299C95.1654 52.2805 100.074 52.821 104.599 55.1907C109.236 57.6229 111.766 61.4526 111.849 66.7588C111.849 67.4707 111.73 67.7772 110.915 67.7475C108.298 67.6915 105.682 67.7277 102.999 67.7277C102.949 67.2103 102.929 66.739 102.853 66.304C102.439 63.786 100.892 62.1579 98.5704 61.3076C94.9258 59.9319 90.9135 59.862 87.2227 61.1099C84.6524 61.9569 83.4169 63.8618 83.7183 66.2018C83.78 66.794 83.9885 67.3617 84.3249 67.8541C84.6613 68.3465 85.1153 68.7481 85.646 69.023C87.2172 69.8624 88.8626 70.5563 90.5614 71.096C94.5096 72.289 98.5439 73.2119 102.485 74.4741C104.464 75.1433 106.355 76.0474 108.116 77.1668C115.019 81.4249 114.9 92.3273 107.729 96.6117C105.037 98.1833 102.041 99.1674 98.938 99.4988C93.6683 100.158 88.4681 99.8877 83.4434 98.0619C79.6078 96.6677 76.4877 94.3673 74.8316 90.5146C74.4825 89.6234 74.2078 88.7052 74.0102 87.7692C74.006 87.6434 74.0343 87.5186 74.0922 87.4067C74.1502 87.2948 74.236 87.1995 74.3414 87.1298C77.0442 86.3784 79.7602 85.6698 82.4762 84.9546C82.559 84.9415 82.6452 84.9678 82.6153 84.9678Z" fill="white"/>
<path d="M147.578 88.8095L152.019 94.7122C150.778 95.9536 149.318 96.9588 147.714 97.6784C140.811 100.684 133.915 100.836 127.357 96.8973C122.107 93.7432 119.738 88.7634 119.639 82.7255C119.487 74.4862 124.591 67.8254 132.517 65.7656C141.278 63.4882 150.158 67.9836 153.103 76.1868C154.019 78.7549 154.247 81.5161 153.765 84.1987C153.649 84.8941 153.364 85.082 152.685 85.082C145.076 85.0622 137.468 85.0622 129.861 85.082H128.725C128.957 86.45 129.526 87.7395 130.381 88.8359C132.037 90.9913 134.286 92.0756 136.949 92.3557C138.747 92.575 140.571 92.4144 142.303 91.8846C144.035 91.3547 145.634 90.4675 146.998 89.2808C147.16 89.1259 147.333 89.0006 147.578 88.8095ZM145.021 78.9783C144.358 75.0234 140.794 72.3175 136.71 72.4922C131.924 72.6932 129.284 76.3779 128.927 78.9783H145.021Z" fill="white"/>
<path d="M211.918 65.9518H214.621C216.578 65.9518 218.536 65.9781 220.493 65.9518C220.759 65.9093 221.032 65.9696 221.255 66.1203C221.478 66.271 221.634 66.5007 221.692 66.7625C224.448 74.0615 227.222 81.3572 230.013 88.6496C230.105 88.9001 230.208 89.1473 230.367 89.5494C230.489 89.3357 230.6 89.1157 230.698 88.8902C233.498 81.5473 236.288 74.1999 239.068 66.8482C239.323 66.1726 239.655 65.9353 240.393 65.9485C242.874 65.9946 245.362 65.9485 247.836 65.9682C248.131 65.9682 248.425 65.9913 248.849 66.0111C248.697 66.4428 248.601 66.7757 248.468 67.0921C244.524 76.5773 240.612 86.0723 236.614 95.5345C234.332 100.936 231.046 105.61 226.068 108.935C223.342 110.764 220.268 112.018 217.035 112.62C216.813 112.663 216.373 112.544 216.323 112.396C215.356 109.897 214.432 107.386 213.478 104.815C214.922 104.308 216.303 103.86 217.655 103.339C220.303 102.386 222.741 100.931 224.832 99.0543C225.029 98.9178 225.168 98.7127 225.22 98.4795C225.272 98.2463 225.234 98.0021 225.114 97.7953C220.828 87.5324 216.557 77.2628 212.302 66.9866C212.19 66.6999 212.094 66.4198 211.918 65.9518Z" fill="white"/>
<path d="M190.703 91.2848C191.17 91.3079 191.462 91.3309 191.75 91.3309H206.556C207.659 91.3309 207.662 91.3309 207.662 92.4647C207.662 94.3828 207.635 96.301 207.662 98.2158C207.678 98.9178 207.42 99.0957 206.754 99.0957C197.683 99.076 188.613 99.076 179.544 99.0957C178.905 99.0957 178.66 98.9244 178.677 98.2586C178.72 96.8085 178.65 95.3518 178.716 93.9049C178.744 93.4222 178.925 92.9606 179.233 92.5866C184.416 86.6543 189.616 80.7307 194.834 74.8159C195.095 74.516 195.354 74.2062 195.784 73.6987H194.598C189.61 73.6987 184.619 73.6987 179.63 73.6987C178.918 73.6987 178.66 73.5207 178.677 72.7825C178.72 70.7819 178.71 68.7814 178.677 66.7809C178.677 66.158 178.845 65.9108 179.518 65.9141C188.613 65.9317 197.71 65.9317 206.807 65.9141C207.47 65.9141 207.672 66.1283 207.655 66.7677C207.619 68.2211 207.688 69.6745 207.619 71.1247C207.588 71.6273 207.401 72.1078 207.082 72.499C201.849 78.5039 196.599 84.4934 191.333 90.4675C191.16 90.7113 190.985 90.942 190.703 91.2848Z" fill="white"/>
<path d="M161.771 76.1185V54.3369C161.771 53.2592 161.771 53.2559 162.847 53.2559H169.379C170.512 53.2559 170.515 53.2559 170.515 54.3599V93.8134C170.515 95.2932 170.488 96.7796 170.515 98.2495C170.515 98.9086 170.333 99.1097 169.674 99.0998C167.385 99.0668 165.096 99.0537 162.811 99.0998C161.986 99.1196 161.731 98.9087 161.737 98.0551C161.784 90.7484 161.771 83.4318 161.771 76.1185Z" fill="white"/>
<path d="M153.991 53.2285H119.623V60.9933H153.991V53.2285Z" fill="white"/>
</g>
<defs>
<clipPath id="clip0_0_341">
<rect width="174.849" height="69.5918" fill="white" transform="translate(74 47.7773)"/>
</clipPath>
</defs>
</svg>
