<svg width="16" height="16" viewBox="0 0 16 16" fill="none" xmlns="http://www.w3.org/2000/svg">
<rect width="16" height="16" rx="8" fill="url(#paint0_linear_1516_10850)"/>
<path d="M6.37404 10.4258C5.56181 10.4258 4.97622 9.70985 4.44 9.05365C4.3373 8.92774 4.23016 8.7969 4.11709 8.66358C3.94082 8.45571 3.9665 8.14416 4.17437 7.96789C4.38273 7.79162 4.69429 7.81729 4.87006 8.02516C4.98708 8.16292 5.09768 8.2987 5.20433 8.42856C6.08568 9.50642 6.29899 9.71281 7.07517 9.09661C8.12637 8.26167 9.68218 6.67129 10.1932 6.14841C10.3838 5.95387 10.6968 5.94992 10.8914 6.14051C11.0859 6.3311 11.0899 6.64364 10.8993 6.83867C9.99374 7.76495 8.67542 9.08673 7.68939 9.86982C7.18823 10.2678 6.7562 10.4258 6.37404 10.4258Z" fill="white"/>
<defs>
<linearGradient id="paint0_linear_1516_10850" x1="-0.68923" y1="-13" x2="18.026" y2="-11.6089" gradientUnits="userSpaceOnUse">
<stop stop-color="#EA0022"/>
<stop offset="1" stop-color="#754DE8"/>
</linearGradient>
</defs>
</svg>
