<svg width="30" height="30" viewBox="0 0 30 30" fill="none" xmlns="http://www.w3.org/2000/svg">
<path fill-rule="evenodd" clip-rule="evenodd" d="M15 30C23.2843 30 30 23.2843 30 15C30 6.71573 23.2843 0 15 0C6.71573 0 0 6.71573 0 15C0 23.2843 6.71573 30 15 30ZM16.8274 7.2591C16.332 7.25985 15.8356 7.26059 15.337 7.26822L15.335 7.26668C15.323 8.88969 15.3235 10.5129 15.3239 12.1377C15.3242 13.0967 15.3244 14.0563 15.3221 15.0167C15.3205 15.3175 15.3211 15.6178 15.3216 15.9179C15.3232 16.7646 15.3248 17.6097 15.2775 18.4583L15.277 18.4655C15.2457 18.7168 15.1518 18.948 15.0148 19.1392L15.0097 19.1484C14.6413 19.746 13.9897 20.1504 13.239 20.173H13.2437C13.2129 20.1745 13.1821 20.175 13.1508 20.175C12.0656 20.175 11.1657 19.3817 10.9954 18.3304L10.9964 18.3427C10.9841 18.24 10.9774 18.1351 10.9774 18.0293C10.9774 17.7683 11.0169 17.516 11.0852 17.2966L11.0898 17.2812C11.3915 16.4246 12.2067 15.8111 13.1652 15.8111C13.4263 15.8111 13.6767 15.8568 13.8937 15.9354C13.8937 15.5283 13.9008 15.121 13.9079 14.7138C13.9173 14.1707 13.9267 13.6276 13.9194 13.0847L13.9481 13.0888C13.6808 13.0431 13.4058 13.019 13.1251 13.019C10.628 13.019 8.57367 14.9186 8.32226 17.3742C8.30943 17.6886 8.31559 18.0098 8.32842 18.3309L8.33047 18.352C8.49465 19.895 9.38227 21.2217 10.6691 21.9971L10.6485 21.9852C11.3556 22.4153 12.1852 22.663 13.0728 22.663C13.1477 22.663 13.2221 22.6614 13.2852 22.6584H13.2924C14.8537 22.6111 16.2267 21.8131 17.0743 20.5974L17.064 20.6133C17.5709 19.8883 17.887 19.0199 17.9398 18.0678C17.9518 16.893 17.9513 15.7155 17.9509 14.537C17.9506 13.8417 17.9504 13.1461 17.9527 12.4504C18.2679 12.6651 18.6004 12.8583 18.9916 13.0467L18.9496 13.0292C19.7812 13.4187 20.7038 13.6453 21.6847 13.67V11.0824L21.6704 11.0813C20.632 11.0094 19.6901 10.5861 18.9662 9.93315C18.294 9.23751 17.8716 8.29855 17.8439 7.25537C17.5053 7.25809 17.1666 7.25859 16.8274 7.2591Z" fill="#C4C1CC"/>
</svg>
