<svg width="19" height="20" viewBox="0 0 19 20" fill="none" xmlns="http://www.w3.org/2000/svg">
<path fill-rule="evenodd" clip-rule="evenodd" d="M11.1961 11.649C12.2641 11.541 13.7718 11.1533 15.0289 10.3267C16.3466 9.46038 17.3728 8.12785 17.3728 6.10965C17.3728 4.02878 16.6431 2.78191 15.7795 2.04872C14.8999 1.30201 13.8404 1.05371 13.1498 1.05371H1.48077C1.10336 1.05371 0.915477 1.50997 1.18389 1.77468L11.1961 11.649Z" fill="#EA0022"/>
<path d="M15.0289 10.3267C13.7718 11.1533 12.2641 11.541 11.1961 11.649L1.18389 1.77468C0.915477 1.50997 1.10336 1.05371 1.48077 1.05371H13.1498C13.8404 1.05371 14.8999 1.30201 15.7795 2.04872C16.6431 2.78191 17.3728 4.02878 17.3728 6.10965C17.3728 8.12785 16.3466 9.46038 15.0289 10.3267Z" fill="#EA0022"/>
<path d="M15.0288 10.7475C13.7716 11.574 12.264 11.9617 11.196 12.0697L1.37305 1.95703L9.39627 8.33404C11.196 9.75053 13.0114 9.62469 14.7223 8.82144C15.6242 8.39798 16.6677 7.60398 17.4635 5.46903C17.5625 6.17319 17.9302 8.78381 15.0288 10.7475Z" fill="#9B0003"/>
<path fill-rule="evenodd" clip-rule="evenodd" d="M9.35041 18.3275L2.46177 11.7745C2.19297 11.5188 1.74805 11.7088 1.74805 12.0794V17.9062C1.74805 18.1389 1.93712 18.3275 2.17035 18.3275H9.35041Z" fill="#BDBDBD"/>
<path d="M2.46177 11.7745L9.35041 18.3275H2.17035C1.93712 18.3275 1.74805 18.1389 1.74805 17.9062V12.0794C1.74805 11.7088 2.19297 11.5188 2.46177 11.7745Z" fill="#BDBDBD"/>
<path opacity="0.58" d="M2.36581 16.3646L2.36584 15.2159C2.39091 16.2085 2.58112 16.8788 3.10999 17.1714C4.06349 17.6788 3.70328 17.7422 2.65439 17.6788C2.33716 17.6596 2.37879 16.8784 2.36581 16.3646Z" fill="white"/>
<path d="M5.82858 14.9932C8.03762 17.8803 5.51564 18.6021 3.97852 18.6021H9.69439L5.82858 14.9932Z" fill="#797979"/>
<path opacity="0.58" d="M13.2505 1.54785H10.1455C12.047 1.54785 13.7476 1.89789 14.3333 2.89163C14.9236 4.20215 16.3299 4.12474 15.7594 3.04972C15.189 1.9747 14.235 1.54785 13.2505 1.54785Z" fill="white"/>
<path fill-rule="evenodd" clip-rule="evenodd" d="M0.589744 2.37385C-0.215478 1.57972 0.348155 0.210938 1.48039 0.210938H13.1494C14.0072 0.210938 15.2705 0.510366 16.3264 1.40684C17.3983 2.31683 18.2171 3.80859 18.2171 6.10953C18.2171 8.47313 16.991 10.0455 15.4933 11.0302C14.3472 11.7837 13.0329 12.2022 11.9508 12.3935L16.6296 17.0078C17.4348 17.8019 16.8711 19.1707 15.7389 19.1707H2.16952C1.46982 19.1707 0.902605 18.6048 0.902605 17.9067V12.0799C0.902605 10.9683 2.23738 10.398 3.04378 11.1651L10.5735 18.328H15.7389C16.1163 18.328 16.3042 17.8718 16.0358 17.6071L0.589744 2.37385ZM15.0286 10.3266C13.7714 11.1532 12.2637 11.5408 11.1958 11.6488L1.18351 1.77456C0.9151 1.50985 1.10298 1.05359 1.48039 1.05359H13.1494C13.8401 1.05359 14.8995 1.30189 15.7791 2.0486C16.6427 2.78179 17.3725 4.02866 17.3725 6.10953C17.3725 8.12774 16.3462 9.46026 15.0286 10.3266ZM9.34957 18.328L2.46094 11.775C2.19214 11.5193 1.74721 11.7094 1.74721 12.0799V17.9067C1.74721 18.1394 1.93629 18.328 2.16952 18.328H9.34957Z" fill="white"/>
<path fill-rule="evenodd" clip-rule="evenodd" d="M0.441941 2.52339C-0.497484 1.59691 0.160087 0 1.48103 0H13.1501C14.0497 0 15.3638 0.312211 16.4639 1.24612C17.5879 2.20031 18.4289 3.7533 18.4289 6.10926C18.4289 8.55921 17.1528 10.1916 15.6101 11.2058C14.5726 11.888 13.4039 12.3011 12.3832 12.5228L16.7786 16.8577C17.7181 17.7842 17.0605 19.3811 15.7396 19.3811H2.17016C1.35384 19.3811 0.692091 18.7209 0.692091 17.9064V12.0796C0.692091 10.7827 2.24933 10.1174 3.19013 11.0124L10.6587 18.1171H15.7396C15.9283 18.1171 16.0222 17.889 15.888 17.7566L0.441941 2.52339ZM8.82278 18.1171L2.31587 11.9272C2.18147 11.7993 1.959 11.8944 1.959 12.0796V17.9064C1.959 18.0228 2.05354 18.1171 2.17016 18.1171H8.82278ZM11.2735 11.4284C12.3085 11.3096 13.7284 10.9292 14.913 10.1504C16.1857 9.31367 17.1619 8.04112 17.1619 6.10926C17.1619 4.0834 16.4545 2.89776 15.6429 2.20877C14.8074 1.4995 13.7989 1.26398 13.1501 1.26398H1.48103C1.29233 1.26398 1.19838 1.49211 1.33259 1.62447L11.2735 11.4284Z" fill="white"/>
</svg>
