<svg width="35" height="38" xmlns="http://www.w3.org/2000/svg" fill="none">
 <defs>
  <linearGradient y2="-0.74244" x2="1.12788" y1="-0.8125" x1="-0.04308" id="paint1_linear_1965_8788">
   <stop stop-color="#EA0022"/>
   <stop stop-color="#754DE8" offset="1"/>
  </linearGradient>
 </defs>
 <g>
  <title>Layer 1</title>
  <path id="svg_11" fill="url(#paint1_linear_1965_8788)" d="m15.2058,0.49033c1.1392,-0.65377 2.5427,-0.65377 3.6819,0l13.3648,7.67007c1.1392,0.65377 1.841,1.862 1.841,3.1695l0,15.3402c0,1.3075 -0.7018,2.5157 -1.841,3.1695l-13.3648,7.6701c-1.1392,0.6537 -2.5427,0.6537 -3.6819,0l-13.36486,-7.6701c-1.13918,-0.6538 -1.84094,-1.862 -1.84094,-3.1695l0,-15.3402c0,-1.3075 0.70176,-2.51573 1.84094,-3.1695l13.36486,-7.67007z"/>
  <path id="svg_12" fill="#F0F0F0" d="m22.1574,24.8192l-10.9812,-10.9811c-0.4891,-0.4891 -1.28207,-0.4891 -1.77116,0c-0.48909,0.489 -0.48909,1.282 0,1.7711l10.98116,10.9812c0.4891,0.4891 1.2821,0.4891 1.7712,0c0.4891,-0.4891 0.4891,-1.2821 0,-1.7712zm-13.46082,-11.6896c-0.88036,0.8804 -0.88036,2.3077 0,3.1881l10.98112,10.9811c0.8804,0.8804 2.3078,0.8804 3.1881,0c0.8804,-0.8803 0.8804,-2.3077 0,-3.188l-10.9811,-10.9812c-0.8804,-0.8804 -2.30776,-0.8804 -3.18812,0z" clip-rule="evenodd" fill-rule="evenodd"/>
  <path id="svg_13" fill="#F0F0F0" d="m11.2765,24.212l10.9811,-10.9811c0.4891,-0.4891 0.4891,-1.2821 0,-1.7712c-0.489,-0.4891 -1.282,-0.4891 -1.7711,0l-10.98117,10.9812c-0.48909,0.4891 -0.4891,1.2821 0,1.7712c0.48909,0.489 1.28207,0.489 1.77117,-0.0001zm11.6896,-13.4607c-0.8804,-0.8804 -2.3077,-0.8804 -3.1881,0l-10.98114,10.9811c-0.88036,0.8804 -0.88036,2.3077 0,3.1881c0.88037,0.8804 2.30774,0.8804 3.18804,0l10.9812,-10.9812c0.8804,-0.8803 0.8804,-2.3077 0,-3.188z" clip-rule="evenodd" fill-rule="evenodd"/>
  <path id="svg_14" fill="#F0F0F0" d="m24.6369,22.3407l-10.9812,-10.9812c-0.4891,-0.4891 -1.2821,-0.4891 -1.7712,0c-0.4891,0.4891 -0.4891,1.2821 0,1.7712l10.9812,10.9812c0.4891,0.4891 1.2821,0.4891 1.7712,0c0.489,-0.4891 0.489,-1.2821 0,-1.7712zm-13.4608,-11.6896c-0.8804,0.8803 -0.8804,2.3077 0,3.1881l10.9811,10.9811c0.8804,0.8804 2.3078,0.8804 3.1881,0c0.8804,-0.8803 0.8804,-2.3077 0,-3.1881l-10.9811,-10.9811c-0.8804,-0.88039 -2.3078,-0.88039 -3.1881,0z" clip-rule="evenodd" fill-rule="evenodd"/>
  <path id="svg_15" fill="#F0F0F0" d="m13.756,26.6915l10.9811,-10.9811c0.4891,-0.4891 0.4891,-1.2821 0,-1.7712c-0.4891,-0.4891 -1.282,-0.4891 -1.7711,0l-10.9812,10.9812c-0.4891,0.4891 -0.4891,1.2821 0,1.7711c0.4891,0.4891 1.2821,0.4891 1.7712,0zm11.6896,-13.4607c-0.8804,-0.8804 -2.3077,-0.8804 -3.1881,0l-10.9811,10.9811c-0.8804,0.8804 -0.8804,2.3077 0,3.1881c0.8803,0.8804 2.3077,0.8804 3.188,0l10.9812,-10.9812c0.8804,-0.8803 0.8804,-2.3077 0,-3.188z" clip-rule="evenodd" fill-rule="evenodd"/>
 </g>
</svg>