<?xml version="1.0" encoding="UTF-8" standalone="no"?>
<svg
   width="933"
   height="214"
   viewBox="0 0 933 214"
   fill="none"
   version="1.1"
   id="svg18"
   sodipodi:docname="simplecx logo og.svg"
   inkscape:version="1.3.2 (091e20ef0f, 2023-11-25, custom)"
   xmlns:inkscape="http://www.inkscape.org/namespaces/inkscape"
   xmlns:sodipodi="http://sodipodi.sourceforge.net/DTD/sodipodi-0.dtd"
   xmlns="http://www.w3.org/2000/svg"
   xmlns:svg="http://www.w3.org/2000/svg">
  <sodipodi:namedview
     id="namedview18"
     pagecolor="#ffffff"
     bordercolor="#000000"
     borderopacity="0.25"
     inkscape:showpageshadow="2"
     inkscape:pageopacity="0.0"
     inkscape:pagecheckerboard="0"
     inkscape:deskcolor="#d1d1d1"
     inkscape:zoom="0.56773663"
     inkscape:cx="338.18498"
     inkscape:cy="-123.29661"
     inkscape:window-width="1920"
     inkscape:window-height="1012"
     inkscape:window-x="0"
     inkscape:window-y="0"
     inkscape:window-maximized="1"
     inkscape:current-layer="svg18" />
  <path
     d="M933 146H912.984L883.03 117.02L853.636 146H833.62L873.372 107.64L833.62 68.9995H853.636L933 146ZM933 68.999L899.687 101.48L889.609 92.5195L912.984 68.999H933Z"
     fill="#F0F0F0"
     id="path1"
     inkscape:export-filename="logo-1.png"
     inkscape:export-xdpi="96"
     inkscape:export-ydpi="96" />
  <path
     d="M823.35 146H777.579C772.26 146 767.268 145.02 762.602 143.06C758.03 141.007 753.971 138.207 750.425 134.66C746.972 131.113 744.266 127.053 742.307 122.48C740.347 117.813 739.367 112.82 739.367 107.5C739.367 102.18 740.347 97.2333 742.307 92.66C744.266 87.9933 746.972 83.8867 750.425 80.34C753.971 76.7933 758.03 74.04 762.602 72.08C767.268 70.0267 772.26 69 777.579 69H823.35V83H777.579C773.1 83 769.041 84.12 765.402 86.36C761.763 88.6 758.823 91.5867 756.584 95.32C754.437 98.96 753.364 103.02 753.364 107.5C753.364 111.98 754.437 116.087 756.584 119.82C758.823 123.46 761.763 126.4 765.402 128.64C769.041 130.88 773.1 132 777.579 132H823.35V146Z"
     fill="#F0F0F0"
     id="path2" />
  <path
     d="M730.509 93.5C730.509 97.98 729.389 102.087 727.15 105.82C725.003 109.553 722.064 112.54 718.331 114.78C714.692 116.927 710.586 118 706.014 118H652.405C654.365 122.107 657.257 125.467 661.083 128.08C665.002 130.693 669.388 132 674.241 132H720.011V146H674.241C668.922 146 663.929 145.02 659.264 143.06C654.691 141.007 650.632 138.207 647.086 134.66C643.633 131.113 640.927 127.053 638.968 122.48C637.008 117.813 636.028 112.82 636.028 107.5C636.028 102.18 637.008 97.2333 638.968 92.66C640.927 87.9933 643.633 83.8867 647.086 80.34C650.632 76.7933 654.691 74.04 659.264 72.08C663.929 70.0267 668.922 69 674.241 69H706.014C710.586 69 714.692 70.12 718.331 72.36C722.064 74.5067 725.003 77.4467 727.15 81.18C729.389 84.82 730.509 88.9267 730.509 93.5ZM706.014 104C708.907 104 711.38 102.973 713.433 100.92C715.485 98.8667 716.512 96.3933 716.512 93.5C716.512 90.6067 715.485 88.1333 713.433 86.08C711.38 84.0267 708.907 83 706.014 83H674.241C670.135 83 666.355 83.9333 662.903 85.8C659.544 87.6667 656.744 90.1867 654.505 93.36C652.265 96.5333 650.865 100.08 650.305 104H706.014Z"
     fill="#F0F0F0"
     id="path3" />
  <path
     d="M628.722 146H625.223C620.743 146 616.638 144.927 612.905 142.78C609.173 140.54 606.186 137.6 603.947 133.96C601.801 130.227 600.728 126.073 600.728 121.5V41H614.725V121.5C614.725 124.393 615.751 126.867 617.804 128.92C619.857 130.973 622.33 132 625.223 132H628.722V146Z"
     fill="#F0F0F0"
     id="path4" />
  <path
     d="M586.054 107.5C586.054 112.82 585.074 117.813 583.115 122.48C581.155 127.053 578.402 131.113 574.856 134.66C571.404 138.207 567.345 141.007 562.679 143.06C558.106 145.02 553.161 146 547.842 146H516.348V132H547.842C552.321 131.907 556.38 130.787 560.019 128.64C563.752 126.4 566.691 123.46 568.838 119.82C570.984 116.087 572.057 111.98 572.057 107.5C572.057 103.02 570.984 98.9133 568.838 95.18C566.691 91.4467 563.752 88.5067 560.019 86.36C556.38 84.12 552.321 83 547.842 83H509.35V173H495.353L495.353 69H547.842C553.161 69 558.106 70.0267 562.679 72.08C567.345 74.04 571.404 76.7933 574.856 80.34C578.402 83.8867 581.155 87.9933 583.115 92.66C585.074 97.2333 586.054 102.18 586.054 107.5Z"
     fill="#F0F0F0"
     id="path5" />
  <path
     d="M378.536 146H364.539V69H438.304C443.623 69 448.569 70.0267 453.141 72.08C457.807 74.04 461.866 76.7933 465.318 80.34C468.864 83.8867 471.617 87.9933 473.577 92.66C475.536 97.2333 476.516 102.18 476.516 107.5V146H462.519V107.5C462.519 103.02 461.446 98.96 459.3 95.32C457.153 91.5867 454.214 88.6 450.481 86.36C446.842 84.12 442.783 83 438.304 83H427.526V146H413.529V83H378.536V146Z"
     fill="#F0F0F0"
     id="path6" />
  <path
     d="M347.863 51.5C347.863 54.3933 346.836 56.8667 344.784 58.92C342.731 60.9733 340.258 62 337.365 62C334.472 62 331.999 60.9733 329.947 58.92C327.894 56.8667 326.867 54.3933 326.867 51.5C326.867 48.6067 327.894 46.1333 329.947 44.08C331.999 42.0267 334.472 41 337.365 41C340.258 41 342.731 42.0267 344.784 44.08C346.836 46.1333 347.863 48.6067 347.863 51.5ZM344.364 146H330.366V69H344.364V146Z"
     fill="url(#paint0_linear_1838_10712)"
     id="path7" />
  <path
     d="M315.983 121.5C315.983 126.073 314.863 130.227 312.624 133.96C310.477 137.6 307.538 140.54 303.805 142.78C300.166 144.927 296.06 146 291.488 146H232V132H291.488C294.381 132 296.853 130.973 298.906 128.92C300.959 126.867 301.986 124.393 301.986 121.5C301.986 118.607 300.959 116.133 298.906 114.08C296.853 112.027 294.381 111 291.488 111H252.996C249.17 111 245.624 110.067 242.358 108.2C239.185 106.333 236.666 103.813 234.799 100.64C232.933 97.3733 232 93.8267 232 90C232 86.08 232.933 82.5333 234.799 79.36C236.666 76.1867 239.185 73.6667 242.358 71.8C245.624 69.9333 249.17 69 252.996 69H308.984V83H252.996C251.036 83 249.356 83.7 247.957 85.1C246.65 86.4067 245.997 88.04 245.997 90C245.997 91.96 246.65 93.64 247.957 95.04C249.356 96.3467 251.036 97 252.996 97H291.488C296.06 97 300.166 98.12 303.805 100.36C307.538 102.507 310.477 105.447 312.624 109.18C314.863 112.82 315.983 116.927 315.983 121.5Z"
     fill="#F0F0F0"
     id="path8" />
  <path
     d="M916.988 41H919.3L924.737 54.2812H924.924L930.361 41H932.673V57H930.86V44.8438H930.704L925.705 57H923.956L918.957 44.8438H918.8V57H916.988V41Z"
     fill="#F0F0F0"
     id="path9" />
  <path
     d="M902 42.7187V41H913.998V42.7187H908.967V57H907.03V42.7187H902Z"
     fill="#F0F0F0"
     id="path10" />
  <path
     d="M85.6326 2.76132C92.048 -0.92044 99.952 -0.920442 106.367 2.76132L181.633 45.9559C188.048 49.6377 192 56.4419 192 63.8054V150.195C192 157.558 188.048 164.362 181.633 168.044L106.367 211.239C99.952 214.92 92.048 214.92 85.6326 211.239L10.3674 168.044C3.95203 164.362 0 157.558 0 150.195V63.8054C0 56.4419 3.95202 49.6377 10.3674 45.9559L85.6326 2.76132Z"
     fill="url(#paint1_linear_1838_10712)"
     id="path11" />
  <path
     fill-rule="evenodd"
     clip-rule="evenodd"
     d="M124.782 139.769L62.9411 77.9278C60.1868 75.1735 55.7211 75.1735 52.9667 77.9278C50.2124 80.6822 50.2124 85.1479 52.9667 87.9022L114.808 149.744C117.562 152.498 122.028 152.498 124.782 149.744C127.537 146.989 127.537 142.523 124.782 139.769ZM48.977 73.9381C44.0191 78.8959 44.0191 86.9342 48.977 91.892L110.818 153.733C115.776 158.691 123.814 158.691 128.772 153.733C133.73 148.775 133.73 140.737 128.772 135.779L66.9309 73.9381C61.9731 68.9802 53.9348 68.9802 48.977 73.9381Z"
     fill="#F0F0F0"
     id="path12" />
  <path
     fill-rule="evenodd"
     clip-rule="evenodd"
     d="M63.5082 136.349L125.35 74.5075C128.104 71.7532 128.104 67.2875 125.35 64.5331C122.595 61.7788 118.129 61.7788 115.375 64.5331L53.5338 126.374C50.7794 129.129 50.7794 133.594 53.5338 136.349C56.2882 139.103 60.7538 139.103 63.5082 136.349ZM129.339 60.5434C124.381 55.5855 116.343 55.5855 111.385 60.5434L49.544 122.385C44.5862 127.343 44.5862 135.381 49.544 140.339C54.5019 145.296 62.5401 145.296 67.498 140.339L129.339 78.4973C134.297 73.5395 134.297 65.5012 129.339 60.5434Z"
     fill="#F0F0F0"
     id="path13" />
  <path
     fill-rule="evenodd"
     clip-rule="evenodd"
     d="M138.744 125.808L76.903 63.9669C74.1487 61.2125 69.683 61.2125 66.9286 63.9669C64.1743 66.7213 64.1743 71.1869 66.9286 73.9413L128.77 135.783C131.524 138.537 135.99 138.537 138.744 135.783C141.499 133.028 141.499 128.563 138.744 125.808ZM62.9389 59.9771C57.981 64.935 57.981 72.9732 62.9389 77.9311L124.78 139.772C129.738 144.73 137.776 144.73 142.734 139.772C147.692 134.815 147.692 126.776 142.734 121.818L80.8928 59.9771C75.935 55.0193 67.8967 55.0193 62.9389 59.9771Z"
     fill="#F0F0F0"
     id="path14" />
  <path
     fill-rule="evenodd"
     clip-rule="evenodd"
     d="M77.4701 150.311L139.311 88.4695C142.066 85.7151 142.066 81.2494 139.311 78.495C136.557 75.7407 132.091 75.7407 129.337 78.495L67.4957 140.336C64.7414 143.091 64.7414 147.556 67.4957 150.311C70.2501 153.065 74.7158 153.065 77.4701 150.311ZM143.301 74.5053C138.343 69.5474 130.305 69.5474 125.347 74.5053L63.506 136.347C58.5481 141.304 58.5481 149.343 63.5059 154.301C68.4638 159.258 76.502 159.258 81.4599 154.301L143.301 92.4592C148.259 87.5014 148.259 79.4631 143.301 74.5053Z"
     fill="#F0F0F0"
     id="path15" />
  <defs
     id="defs18">
    <linearGradient
       id="paint0_linear_1838_10712"
       x1="335.282"
       y1="34.0001"
       x2="407.31"
       y2="116.594"
       gradientUnits="userSpaceOnUse">
      <stop
         stop-color="#EA0022"
         id="stop15" />
      <stop
         offset="1"
         stop-color="#754DE8"
         id="stop16" />
    </linearGradient>
    <linearGradient
       id="paint1_linear_1838_10712"
       x1="-8.27076"
       y1="-173.875"
       x2="216.553"
       y2="-158.882"
       gradientUnits="userSpaceOnUse">
      <stop
         stop-color="#EA0022"
         id="stop17" />
      <stop
         offset="1"
         stop-color="#754DE8"
         id="stop18" />
    </linearGradient>
  </defs>
</svg>
